<svg xmlns="http://www.w3.org/2000/svg" width="35px"
          height="35px" viewBox="0 0 25 25"><g data-name="Github 2"><g data-name="&lt;Group&gt;"><path fill="#1fcbfb" stroke="#1fcbfb" stroke-linecap="round" stroke-linejoin="round" d="M12,10.72H12c-3,0-5.6-.83-7.15.74a4.54,4.54,0,0,0-1.32,3.3c0,5.11,3.71,5.74,8.46,5.74H12c4.76,0,8.46-.63,8.46-5.74a4.54,4.54,0,0,0-1.32-3.3C17.63,9.89,15,10.72,12,10.72ZM14.17,22.5H9.83C8,22.5.5,22.34.5,12.67A7.61,7.61,0,0,1,2.37,7.46a12.82,12.82,0,0,1,.79-6s2.26.27,5.69,2.8A12.59,12.59,0,0,1,12,4a12.58,12.58,0,0,1,3.15.32c3.43-2.53,5.69-2.8,5.69-2.8a12.82,12.82,0,0,1,.79,6,7.61,7.61,0,0,1,1.87,5.21C23.5,22.34,16,22.5,14.17,22.5Zm3.33-7c0,1.66-.67,3-1.5,3s-1.5-1.34-1.5-3,.67-3,1.5-3S17.5,13.84,17.5,15.5Zm-8,0c0,1.66-.67,3-1.5,3s-1.5-1.34-1.5-3,.67-3,1.5-3S9.5,13.84,9.5,15.5Z" data-name="&lt;Compound Path&gt;"/></g></g></svg>